<svg width="1440" height="655" viewBox="0 0 1440 655" fill="none" xmlns="http://www.w3.org/2000/svg">
<path opacity="0.5" d="M691.486 496.77C691.486 496.451 691.47 496.147 691.455 495.859C691.455 495.798 691.455 495.737 691.455 495.677C691.455 495.677 691.455 495.419 691.425 495.024C691.243 491.592 690.622 491.653 685.683 491.653H577.495C486.715 491.653 411.373 417.208 412.01 326.229C412.07 317.346 412.813 308.661 414.176 300.204L-347 300.204V288.923L416.358 288.923C418.07 281.529 420.267 274.347 422.918 267.408C419.888 267.696 416.843 267.848 413.798 267.863H410.54V267.818L-347 267.818V256.536L410.616 256.536V256.567H413.782C418.555 256.536 423.342 256.111 428.039 255.352C432.675 245.589 438.25 236.403 444.643 227.87C435.174 232.607 424.509 235.28 413.222 235.28H410.555L-347 235.28V223.998L410.616 223.998H413.222C445.916 223.998 472.777 197.549 472.656 164.783C472.459 105.385 522.485 57.42 582.51 61.2159C634.551 64.5107 676.32 107.009 678.911 159.195C681.85 218.593 634.369 267.848 575.602 267.848C541.847 267.848 516.395 293.463 516.395 327.413C516.395 361.363 543.059 386.993 575.844 386.993L693.091 387.039C696.137 387.054 699.182 387.206 702.212 387.494C699.803 381.147 697.758 374.588 696.122 367.877H576.586C553.952 367.877 535.12 349.308 535.484 326.624C535.863 303.59 552.619 286.979 575.602 286.979C646.595 286.979 703.681 226.261 697.682 154.017C692.667 93.6782 643.505 45.6679 583.192 42.115C512.471 37.9395 453.597 94.4069 453.567 164.403C453.567 186.677 435.417 204.897 413.207 204.897H410.54L-347 204.897V193.616L410.616 193.616H413.525C429.569 193.616 442.325 180.467 442.325 164.388C442.356 90.3075 502.76 30.12 576.783 30.6363C647.762 31.1221 706.469 88.0147 709.257 159.089C712.256 235.31 651.141 298.276 575.602 298.276C558.012 298.276 546.301 310.438 546.741 328.415C547.119 344.145 560.148 356.611 575.844 356.611H693.758C692.682 350.371 691.94 343.993 691.561 337.495H576.147C570.451 337.495 565.663 332.818 565.815 327.109C565.966 321.4 570.163 317.377 575.602 317.377C660.7 317.377 729.77 247.426 728.422 161.974C727.134 80.423 661.231 13.6611 579.874 11.5506C496.093 9.37933 426.933 75.2606 423.433 157.889C423.357 159.757 423.206 162.065 423.1 164.433C422.979 167.455 421.751 170.021 419.842 171.797C418.297 173.3 416.297 174.272 414.025 174.485C413.692 174.515 413.358 174.53 413.01 174.53H405.935L-347 174.53V163.264L406.283 163.264C411.207 163.264 411.843 163.325 412.025 159.893C412.025 159.499 412.055 159.241 412.055 159.241C412.055 159.18 412.055 159.119 412.055 159.058C412.055 158.77 412.07 158.466 412.086 158.147C412.737 140.884 416.07 124.303 421.66 108.786C421.691 108.801 421.706 108.816 421.736 108.831C445.401 43.0867 509.774 -3.31408 584.252 0.451432C667.745 4.65726 735.179 72.1935 739.466 155.87C740.678 179.51 736.86 202.134 728.982 222.784C759.055 186.449 804.43 163.279 855.108 163.279L1572.92 163.279V174.561L856.562 174.561C772.903 174.561 703.651 241.429 702.515 325.257C701.333 412.076 768.691 480.417 854.865 480.417V480.432C860.35 480.432 864.789 484.942 864.683 490.454C864.577 495.965 859.804 500.368 854.38 500.095C849.563 499.852 845.699 496.132 845.154 491.38C838.624 491.015 832.231 490.256 825.959 489.178C825.959 489.603 825.989 490.029 825.989 490.454C825.989 507.596 840.821 521.337 858.32 519.454C871.652 518.012 882.469 507.262 884.014 493.9C886.059 476.272 872.197 461.271 854.865 461.271C779.478 461.271 720.574 401.478 721.589 325.515C722.574 252.164 783.19 193.646 856.38 193.646L1572.92 193.646V204.928L856.274 204.928C789.25 204.928 733.755 258.51 732.846 325.667C731.906 395.223 785.841 449.99 854.865 449.99C878.818 449.99 897.998 470.761 895.195 495.191C893.074 513.745 878.121 528.64 859.592 530.66C835.322 533.301 814.732 514.246 814.732 490.454C814.732 489.254 814.657 488.055 814.626 486.84C807.96 485.215 801.491 483.166 795.204 480.751C795.476 483.651 795.628 486.567 795.658 489.497C795.931 519.272 817.035 545.22 846.457 549.396C883.06 554.604 914.557 526.135 914.557 490.438C914.557 457.597 887.787 430.858 854.88 430.858C797.385 430.858 752.314 385.809 751.935 328.172C751.556 270.885 799.37 224.013 856.532 224.013L1572.95 224.013V235.295L856.38 235.295C805.46 235.295 762.858 277.049 763.191 328.081C763.525 379.432 803.688 419.562 854.88 419.562C895.831 419.562 928.783 454.393 925.602 495.95C922.95 530.584 894.998 558.521 860.441 561.057C819.065 564.109 784.432 531.237 784.432 490.408C784.432 485.443 784.008 480.478 783.22 475.604C773.494 470.958 764.328 465.37 755.828 458.963C760.54 468.437 763.191 479.112 763.191 490.408C763.191 542.639 806.779 584.849 859.41 582.45C906.467 580.294 944.706 542.062 946.963 494.902C949.493 442.064 907.209 398.259 854.896 398.259C814.399 398.259 783.947 367.315 784.447 326.426C784.917 287.572 817.066 256.552 855.835 256.552L1572.95 256.552V267.833L855.714 267.833C823.353 267.833 796.385 293.539 795.704 325.971C794.977 360.635 820.671 386.978 854.896 386.978C913.603 386.978 961.038 436.127 958.205 495.434C955.675 548.363 912.769 591.287 859.956 593.701C800.87 596.404 751.95 549.016 751.95 490.393C751.95 457.551 725.286 430.828 692.516 430.828L575.874 430.782C518.97 430.782 472.686 384.382 472.686 327.368C472.686 270.353 517.91 223.953 575.632 223.953C609.977 223.953 637.657 194.831 635.157 160.03C633.051 130.68 609.296 106.949 580.01 104.96C545.377 102.591 516.425 130.164 516.425 164.388C516.425 167.622 516.273 170.856 515.97 174.075C522.258 171.676 528.727 169.626 535.393 167.986C535.423 166.787 535.499 165.572 535.499 164.373C535.499 140.58 556.103 121.525 580.359 124.167C598.888 126.186 613.826 141.081 615.962 159.635C618.765 184.05 599.584 204.837 575.632 204.837C507.214 204.837 453.612 258.662 453.612 327.368C453.612 396.073 508.456 449.898 575.874 449.898L695.258 450.05C716.196 451.037 732.876 469.014 732.876 490.408C732.876 560.146 791.31 616.477 861.698 612.772C923.693 609.508 973.885 559.28 977.233 497.165C981.036 426.546 924.693 367.862 854.911 367.862C831.928 367.862 815.172 351.236 814.793 328.218C814.414 305.2 833.246 286.964 855.896 286.964L1572.98 286.964V298.246L855.168 298.246C839.473 298.246 826.443 310.711 826.065 326.441C825.625 344.419 837.337 356.581 854.926 356.581C928.677 356.581 988.687 416.616 988.687 490.393C988.687 564.261 928.707 624.311 854.986 624.205C781.432 624.114 721.634 564.124 721.634 490.393C721.634 474.314 708.575 461.225 692.531 461.225L575.889 461.18C502.26 461.18 442.371 401.144 442.371 327.368C442.371 253.591 500.911 193.555 575.647 193.555C592.979 193.555 606.841 178.554 604.796 160.926C603.251 147.564 592.434 136.814 579.101 135.372C561.618 133.489 546.786 147.23 546.786 164.373C546.786 164.798 546.756 165.223 546.756 165.648C553.028 164.57 559.436 163.811 565.951 163.446C566.496 158.709 570.36 154.974 575.177 154.731C580.601 154.473 585.389 158.922 585.48 164.373C585.57 169.823 581.147 174.394 575.662 174.394V174.409C490.23 174.409 423.297 241.581 423.297 327.337C423.297 413.094 491.76 480.281 575.905 480.281H685.38H692.455C692.804 480.281 693.137 480.296 693.47 480.326C698.47 480.782 702.212 484.942 702.439 490.378C702.545 492.746 702.697 495.054 702.772 496.922C706.272 579.55 775.448 645.432 859.213 643.26C940.57 641.15 1006.47 574.388 1007.76 492.837C1009.11 407.385 940.04 337.449 854.941 337.449C849.502 337.449 845.306 333.441 845.154 327.717C845.003 321.993 849.79 317.331 855.486 317.331L1573 317.331V328.613L883.272 328.613C961.432 342.278 1020.74 411.484 1019 493.946C1017.11 582.724 944.1 654.435 855.502 654.587C767.13 654.754 694.879 584.409 691.546 496.679L691.486 496.77ZM691.289 326.198C691.44 306.08 695.228 286.812 702 269.033C677.608 298.504 643.141 319.351 603.932 326.198H691.289ZM503.941 179.222C504.729 174.348 505.153 169.383 505.153 164.418C505.153 125.351 536.863 93.5719 575.844 93.5719C614.826 93.5719 646.535 125.351 646.535 164.418C646.535 203.485 614.719 235.264 575.602 235.264C524.182 235.264 483.898 275.728 483.898 327.398C483.898 379.067 525.136 419.547 575.844 419.547L695.228 419.683C705.5 420.078 715.211 422.659 723.907 427.002C717.514 418.469 711.938 409.283 707.302 399.52C702.606 398.76 697.818 398.335 693.046 398.305L575.844 398.259C536.863 398.259 505.153 366.48 505.153 327.413C505.153 288.346 535.438 256.567 575.617 256.567C626.446 256.567 667.791 215.237 667.791 164.418C667.791 113.599 626.552 72.2846 575.859 72.2846C525.167 72.2846 483.913 113.614 483.913 164.418C483.913 175.715 481.246 186.389 476.55 195.863C485.049 189.456 494.215 183.868 503.941 179.222Z" fill="white"/>
</svg>
