<svg width="655" height="1440" xmlns="http://www.w3.org/2000/svg" viewBox="0 0 655 1440" fill="none">
<path opacity="0.5" fill="white" d="M51.1,798.4c0.3,0,0.6,0,0.9,0c0.1,0,0.1,0,0.2,0c0,0,0.3,0,0.7,0c3.4-0.2,3.4-0.8,3.4-5.7V684.4
	c0-90.8,74.4-166.1,165.4-165.5c8.9,0.1,17.6,0.8,26,2.2v-761.2H259v763.4c7.4,1.7,14.6,3.9,21.5,6.6c-0.3-3-0.4-6.1-0.5-9.1v-3.3h0
	v-757.5h11.3v757.6h0v3.2c0,4.8,0.5,9.6,1.2,14.3c9.8,4.6,18.9,10.2,27.5,16.6c-4.7-9.5-7.4-20.1-7.4-31.4v-2.7v-757.6h11.3v757.6
	v2.6c0,32.7,26.4,59.6,59.2,59.4c59.4-0.2,107.4,49.8,103.6,109.9c-3.3,52-45.8,93.8-98,96.4c-59.4,2.9-108.7-44.5-108.7-103.3
	c0-33.8-25.6-59.2-59.6-59.2s-59.6,26.7-59.6,59.4l0,117.2c0,3-0.2,6.1-0.5,9.1c6.3-2.4,12.9-4.5,19.6-6.1V683.5
	c0-22.6,18.6-41.5,41.3-41.1c23,0.4,39.6,17.1,39.6,40.1c0,71,60.7,128.1,133,122.1c60.3-5,108.3-54.2,111.9-114.5
	c4.2-70.7-52.3-129.6-122.3-129.6c-22.3,0-40.5-18.1-40.5-40.4v-2.7v-757.5h11.3v757.6v2.9c0,16,13.1,28.8,29.2,28.8
	c74.1,0,134.3,60.4,133.8,134.5c-0.5,71-57.4,129.7-128.5,132.5c-76.2,3-139.2-58.1-139.2-133.7c0-17.6-12.2-29.3-30.1-28.9
	c-15.7,0.4-28.2,13.4-28.2,29.1v117.9c6.2-1.1,12.6-1.8,19.1-2.2V683.1c0-5.7,4.7-10.5,10.4-10.3c5.7,0.2,9.7,4.3,9.7,9.8
	c0,85.1,70,154.2,155.4,152.8c81.6-1.3,148.3-67.2,150.4-148.5c2.2-83.8-63.7-152.9-146.3-156.4c-1.9-0.1-4.2-0.2-6.5-0.3
	c-3-0.1-5.6-1.3-7.4-3.3c-1.5-1.5-2.5-3.5-2.7-5.8c0-0.3,0-0.7,0-1v-7.1v-752.9h11.3v753.3c0,4.9-0.1,5.6,3.4,5.7c0.4,0,0.7,0,0.7,0
	c0.1,0,0.1,0,0.2,0c0.3,0,0.6,0,0.9,0c17.3,0.7,33.8,4,49.4,9.6c0,0,0,0,0,0.1c65.7,23.7,112.1,88,108.4,162.5
	c-4.2,83.5-71.7,150.9-155.4,155.2c-23.6,1.2-46.3-2.6-66.9-10.5c36.3,30.1,59.5,75.4,59.5,126.1v717.8h-11.3V963.5
	c0-83.7-66.9-152.9-150.7-154c-86.8-1.2-155.2,66.2-155.2,152.3h0c0,5.5-4.5,9.9-10,9.8c-5.5-0.1-9.9-4.9-9.6-10.3
	c0.2-4.8,4-8.7,8.7-9.2c0.4-6.5,1.1-12.9,2.2-19.2c-0.4,0-0.9,0-1.3,0c-17.1,0-30.9,14.8-29,32.3c1.4,13.3,12.2,24.1,25.6,25.7
	c17.6,2,32.6-11.8,32.6-29.1c0-75.4,59.8-134.3,135.8-133.3c73.4,1,131.9,61.6,131.9,134.8v716.5H343V963.2
	c0-67-53.6-122.5-120.7-123.4c-69.6-0.9-124.3,53-124.3,122c0,24-20.8,43.1-45.2,40.3c-18.6-2.1-33.4-17.1-35.5-35.6
	c-2.6-24.3,16.4-44.9,40.2-44.9c1.2,0,2.4-0.1,3.6-0.1c1.6-6.7,3.7-13.1,6.1-19.4c-2.9,0.3-5.8,0.4-8.7,0.5
	c-29.8,0.3-55.7,21.4-59.9,50.8c-5.2,36.6,23.3,68.1,59,68.1c32.8,0,59.6-26.8,59.6-59.7c0-57.5,45-102.6,102.7-102.9
	c57.3-0.4,104.2,47.4,104.2,104.6v716.4h-11.3V963.3c0-50.9-41.8-93.5-92.8-93.2c-51.4,0.3-91.5,40.5-91.5,91.7
	c0,41-34.8,73.9-76.4,70.7c-34.6-2.7-62.6-30.6-65.1-65.2c-3.1-41.4,29.8-76,70.6-76c5,0,9.9-0.4,14.8-1.2
	c4.6-9.7,10.2-18.9,16.6-27.4c-9.5,4.7-20.1,7.4-31.4,7.4c-52.2,0-94.4,43.6-92,96.2c2.2,47.1,40.4,85.3,87.5,87.6
	c52.8,2.5,96.6-39.8,96.6-92.1c0-40.5,30.9-70.9,71.8-70.4c38.9,0.5,69.9,32.6,69.9,71.4v717.1h-11.3V962.6
	c0-32.4-25.7-59.3-58.1-60c-34.7-0.7-61,25-61,59.2c0,58.7-49.1,106.1-108.5,103.3c-52.9-2.5-95.9-45.4-98.3-98.2
	c-2.7-59.1,44.7-108,103.3-108c32.8,0,59.6-26.7,59.6-59.4l0-116.6c0-56.9,46.4-103.2,103.4-103.2c57,0,103.4,45.2,103.4,102.9
	c0,34.3,29.1,62,63.9,59.5c29.4-2.1,53.1-25.9,55.1-55.1c2.4-34.6-25.2-63.6-59.4-63.6c-3.2,0-6.5-0.2-9.7-0.5
	c2.4,6.3,4.4,12.8,6.1,19.4c1.2,0,2.4,0.1,3.6,0.1c23.8,0,42.8,20.6,40.2,44.9c-2,18.5-16.9,33.5-35.5,35.6
	c-24.4,2.8-45.2-16.4-45.2-40.3c0-68.4-53.8-122-122.5-122C151.8,560.5,98,615.4,98,682.8l-0.2,119.4c-1,20.9-19,37.6-40.4,37.6
	c-69.7,0-126.1,58.4-122.4,128.8c3.3,62,53.5,112.2,115.6,115.5c70.6,3.8,129.3-52.5,129.3-122.3c0-23,16.6-39.7,39.6-40.1
	c23-0.4,41.3,18.5,41.3,41.1v717.1h-11.3V962.1c0-15.7-12.5-28.7-28.2-29.1c-18-0.4-30.1,11.3-30.1,28.9
	c0,73.8-60,133.8-133.8,133.8c-73.9,0-133.9-60-133.8-133.7c0.1-73.6,60.1-133.4,133.8-133.4c16.1,0,29.2-13.1,29.2-29.1l0-116.6
	c0-73.6,60-133.5,133.8-133.5c73.8,0,133.8,58.5,133.8,133.3c0,17.3,15,31.2,32.6,29.1c13.4-1.5,24.1-12.4,25.6-25.7
	c1.9-17.5-11.9-32.3-29-32.3c-0.4,0-0.9,0-1.3,0c1.1,6.3,1.8,12.7,2.2,19.2c4.7,0.5,8.5,4.4,8.7,9.2c0.3,5.4-4.2,10.2-9.6,10.3
	c-5.4,0.1-10-4.3-10-9.8h0c0-85.4-67.2-152.4-152.9-152.4c-85.8,0-152.9,68.5-152.9,152.6v109.5v7.1c0,0.3,0,0.7,0,1
	c-0.5,5-4.6,8.7-10.1,9c-2.4,0.1-4.7,0.3-6.5,0.3c-82.6,3.5-148.5,72.7-146.3,156.4c2.1,81.4,68.9,147.3,150.4,148.5
	c85.5,1.3,155.4-67.7,155.4-152.8c0-5.4,4-9.6,9.7-9.8c5.7-0.2,10.4,4.6,10.4,10.3v717.5h-11.3V990.2
	c-13.7,78.2-82.9,137.5-165.3,135.7c-88.8-1.9-160.5-74.9-160.6-163.5C-106.8,874-36.5,801.8,51.1,798.4L51.1,798.4z M221.7,798.2
	c20.1,0.2,39.4,3.9,57.2,10.7c-29.5-24.4-50.3-58.9-57.2-98.1V798.2z M368.7,610.9c4.9,0.8,9.8,1.2,14.8,1.2
	c39.1,0,70.8,31.7,70.8,70.7c0,39-31.8,70.7-70.8,70.7s-70.8-31.8-70.8-70.9c0-51.4-40.5-91.7-92.1-91.7
	c-51.7,0-92.1,41.2-92.1,91.9l-0.1,119.4c-0.4,10.3-3,20-7.3,28.7c8.5-6.4,17.7-12,27.5-16.6c0.8-4.7,1.2-9.5,1.2-14.3l0-117.2
	c0-39,31.8-70.7,70.8-70.7s70.8,30.3,70.8,70.5c0,50.8,41.3,92.2,92.1,92.2s92.1-41.2,92.1-91.9c0-50.7-41.3-91.9-92.1-91.9
	c-11.3,0-22-2.7-31.4-7.4C358.5,592,364,601.1,368.7,610.9z"/>
</svg>
