<svg width="128" height="129" viewBox="0 0 128 129" fill="none" xmlns="http://www.w3.org/2000/svg">
<path d="M97.3126 48.2481C97.3929 47.3156 97.4387 46.3773 97.4387 45.4219C97.4387 27.1774 82.6218 12.3884 64.3429 12.3884C46.064 12.3884 31.2471 27.1774 31.2471 45.4219V82.8205C31.2471 101.065 46.064 115.854 64.3429 115.854C82.6218 115.854 97.4387 101.065 97.4387 82.8205C97.4387 81.8708 97.3929 80.9269 97.3126 79.9943V48.2481Z" stroke="#00078A" stroke-width="2" stroke-miterlimit="10"/>
<path d="M98.9068 76.1725C99.6233 75.5718 100.323 74.9368 100.993 74.2617C113.919 61.3607 113.919 40.4444 100.993 27.5434C88.0678 14.6424 67.1121 14.6424 54.1867 27.5434L27.694 53.9862C14.7687 66.8872 14.7687 87.8035 27.694 100.704C40.6194 113.606 61.5751 113.606 74.5005 100.704C75.1768 100.029 75.8131 99.3372 76.4149 98.622L98.9068 76.1725Z" stroke="#00078A" stroke-width="2" stroke-miterlimit="10"/>
<path d="M76.4149 29.6259C75.8131 28.9108 75.1768 28.2128 74.5005 27.5434C61.5751 14.6424 40.6194 14.6424 27.694 27.5434C14.7687 40.4444 14.7687 61.3607 27.694 74.2617L54.1867 100.704C67.1121 113.606 88.0678 113.606 100.993 100.704C113.919 87.8035 113.919 66.8872 100.993 53.9862C100.317 53.3111 99.6233 52.6761 98.9068 52.0754L76.4149 29.6259Z" stroke="#00078A" stroke-width="2" stroke-miterlimit="10"/>
</svg>
