<svg xmlns="http://www.w3.org/2000/svg" viewBox="0 0 128 128"><path stroke="#4F4F4F" fill="none" stroke-width="2" stroke-miterlimit="10" d="M69.2,108.7c24.6,0,44.6-20.1,44.6-44.9c0-24.8-20-44.9-44.6-44.9S24.6,39.1,24.6,63.9
	C24.6,88.6,44.5,108.7,69.2,108.7z"/><path stroke="#4F4F4F" fill="none" stroke-width="2" stroke-miterlimit="10" d="M80.5,108.7c24.6,0,44.6-20.1,44.6-44.9c0-24.8-20-44.9-44.6-44.9c-24.6,0-44.6,20.1-44.6,44.9
	C35.9,88.6,55.8,108.7,80.5,108.7z"/><path stroke="#4F4F4F" fill="none" stroke-width="2" stroke-miterlimit="10" d="M57.9,108.7c24.6,0,44.6-20.1,44.6-44.9c0-24.8-20-44.9-44.6-44.9c-24.6,0-44.6,20.1-44.6,44.9
	C13.3,88.6,33.3,108.7,57.9,108.7z"/><path stroke="#4F4F4F" fill="none" stroke-width="2" stroke-miterlimit="10" d="M46.6,108.7c24.6,0,44.6-20.1,44.6-44.9c0-24.8-20-44.9-44.6-44.9S2,39.1,2,63.9C2,88.6,22,108.7,46.6,108.7z"/></svg>