<svg width="25" height="24" viewBox="0 0 25 24" fill="none" xmlns="http://www.w3.org/2000/svg">
<g clip-path="url(#clip0_715_628)">
<path fill-rule="evenodd" clip-rule="evenodd" d="M3.16667 24H21.8333C23.3061 24 24.5 22.8061 24.5 21.3333V2.66667C24.5 1.19391 23.3061 0 21.8333 0H3.16667C1.69391 0 0.5 1.19391 0.5 2.66667V21.3333C0.5 22.8061 1.69391 24 3.16667 24Z" fill="black"/>
<path fill-rule="evenodd" clip-rule="evenodd" d="M21.1673 20.6666H17.6059V14.6006C17.6059 12.9375 16.9739 12.0081 15.6576 12.0081C14.2255 12.0081 13.4773 12.9753 13.4773 14.6006V20.6666H10.0451V9.11103H13.4773V10.6676C13.4773 10.6676 14.5093 8.75799 16.9615 8.75799C19.4125 8.75799 21.1673 10.2547 21.1673 13.3503V20.6666ZM5.95043 7.59792C4.78134 7.59792 3.83398 6.64314 3.83398 5.46559C3.83398 4.28804 4.78134 3.33325 5.95043 3.33325C7.11953 3.33325 8.06632 4.28804 8.06632 5.46559C8.06632 6.64314 7.11953 7.59792 5.95043 7.59792ZM4.17817 20.6666H7.75712V9.11103H4.17817V20.6666Z" fill="white"/>
</g>
<defs>
<clipPath id="clip0_715_628">
<rect width="24" height="24" fill="white" transform="translate(0.5)"/>
</clipPath>
</defs>
</svg>
