<svg width="32" height="32" viewBox="0 0 32 32" fill="none" xmlns="http://www.w3.org/2000/svg">
<path fill-rule="evenodd" clip-rule="evenodd" d="M13.3529 3.50049H13.2608C7.88605 3.50049 3.5 7.88682 3.5 13.2613C3.5 18.6357 7.88634 23.022 13.2608 23.022C15.4814 23.022 17.5343 22.2767 19.1778 21.0192L19.5258 20.7529L27.0072 28.2458C27.3463 28.5846 27.9065 28.5847 28.2455 28.2458C28.5845 27.9067 28.5845 27.3573 28.2455 27.0183L20.7529 19.5257L21.0189 19.1779C22.2759 17.5345 23.0217 15.4811 23.0217 13.2608C23.0217 7.91679 18.6851 3.55015 13.3529 3.50049ZM5.23564 13.2618C5.23564 8.81336 8.81233 5.23667 13.2608 5.23667C17.709 5.23667 21.2859 8.81335 21.2859 13.2618C21.2859 17.7103 17.7092 21.2869 13.2608 21.2869C8.81233 21.2869 5.23564 17.7103 5.23564 13.2618Z" fill="white"/>
</svg>
