<svg xmlns="http://www.w3.org/2000/svg" viewBox="0 0 128 128"><path stroke="#4F4F4F" fill="none" stroke-width="2" stroke-miterlimit="10" d="M63.8,79.4c33,0,59.8-6.8,59.8-15.1c0-8.4-26.8-15.1-59.8-15.1S4,55.9,4,64.3C4,72.6,30.8,79.4,63.8,79.4z"/><path stroke="#4F4F4F" fill="none" stroke-width="2" stroke-miterlimit="10" d="M71.1,75.8c27.9-17.7,47.3-37.3,43.3-43.7c-4-6.4-29.9,2.8-57.9,20.5C28.6,70.3,9.2,89.9,13.2,96.3
	C17.2,102.8,43.2,93.6,71.1,75.8z"/><path stroke="#4F4F4F" fill="none" stroke-width="2" stroke-miterlimit="10" d="M114.4,96.4c4-6.4-15.3-26-43.3-43.7C43.2,34.9,17.3,25.8,13.3,32.2c-4,6.4,15.3,26,43.3,43.7
	S110.4,102.8,114.4,96.4z"/><path stroke="#4F4F4F" fill="none" stroke-width="2" stroke-miterlimit="10" d="M63.8,34.6V15"/><path stroke="#4F4F4F" fill="none" stroke-width="2" stroke-miterlimit="10" d="M56,22.8l7.8-7.8l7.8,7.8"/><path stroke="#4F4F4F" fill="none" stroke-width="2" stroke-miterlimit="10" d="M63.8,93.9v19.6"/><path stroke="#4F4F4F" fill="none" stroke-width="2" stroke-miterlimit="10" d="M71.6,105.7l-7.8,7.8l-7.8-7.8"/></svg>