<svg width="32" height="32" viewBox="0 0 32 32" fill="none" xmlns="http://www.w3.org/2000/svg">
<path fill-rule="evenodd" clip-rule="evenodd" d="M13.3531 3.50044H13.261C7.88629 3.50044 3.50024 7.88677 3.50024 13.2612C3.50024 18.6356 7.88659 23.022 13.261 23.022C15.4817 23.022 17.5346 22.2766 19.178 21.0192L19.5261 20.7529L27.0075 28.2457C27.3465 28.5845 27.9068 28.5847 28.2457 28.2457C28.5848 27.9067 28.5848 27.3573 28.2457 27.0182L20.7531 19.5256L21.0191 19.1779C22.2761 17.5345 23.022 15.481 23.022 13.2608C23.022 7.91674 18.6853 3.5501 13.3531 3.50044ZM5.23588 13.2618C5.23588 8.81332 8.81257 5.23663 13.261 5.23663C17.7092 5.23663 21.2862 8.81331 21.2862 13.2618C21.2862 17.7102 17.7095 21.2869 13.261 21.2869C8.81257 21.2869 5.23588 17.7102 5.23588 13.2618Z" fill="#00078A"/>
</svg>
