<svg width="35" height="30" viewBox="0 0 35 30" fill="none" xmlns="http://www.w3.org/2000/svg">
<path d="M10.6694 29.091C23.934 29.091 31.1431 18.3146 31.1431 8.95606C31.1431 8.67247 31.1431 8.38888 31.1431 8.10529C32.5849 6.97093 33.7383 5.83657 34.8918 4.41861C33.45 4.9858 32.2965 5.26939 30.8547 5.55298C32.2965 4.7022 33.45 3.28425 34.0267 1.58271C32.5849 2.43348 31.1431 3.00066 29.4129 3.28425C28.2595 2.14989 26.8176 1.29912 25.3758 1.01553C23.934 0.731936 22.2039 1.01553 20.7621 1.8663C19.3202 2.71707 18.1668 3.85143 17.5901 5.26939C17.0133 6.68734 16.725 8.10529 17.0133 9.80684C14.1297 9.52324 11.5345 8.95606 8.93922 7.53811C6.34396 6.40375 4.03707 4.41861 2.30689 2.43348C1.15345 3.85143 0.865085 5.83657 1.44181 7.53811C1.73017 9.23965 2.88362 10.9412 4.61379 11.792C3.46034 11.792 2.30689 11.5084 1.44181 10.9412C1.44181 12.6427 2.01853 14.0607 3.17198 15.4786C3.7487 16.8966 5.19051 17.7474 6.92068 18.031C5.76724 18.3146 4.61379 18.3146 3.7487 18.031C4.03707 19.4489 4.90215 20.8669 6.34396 21.7176C7.49741 22.5684 8.93922 23.1356 10.6694 23.1356C8.07413 25.1207 4.90215 26.2551 1.73017 26.2551C1.15345 26.2551 0.576724 26.2551 0 26.2551C2.88362 28.2402 6.92068 29.091 10.6694 29.091Z" fill="white"/>
</svg>
