<svg xmlns="http://www.w3.org/2000/svg" viewBox="0 0 130 128"><path stroke="#4F4F4F" fill="none" stroke-width="2" stroke-miterlimit="10" d="M85.8,12c-5.8,0-11,8.1-14.2,20.6C68.3,20.1,63.1,12,57.3,12s-11,8.1-14.2,20.6C39.8,20.1,34.7,12,28.8,12
	C19,12,11,35.2,11,63.9c0,28.7,8,51.9,17.8,51.9c5.8,0,11-8.1,14.2-20.6c3.3,12.5,8.4,20.6,14.2,20.6s11-8.1,14.2-20.6
	c3.3,12.5,8.4,20.6,14.2,20.6c9.9,0,17.8-23.3,17.8-51.9C103.7,35.2,95.7,12,85.8,12z"/><path stroke="#4F4F4F" fill="none" stroke-width="2" stroke-miterlimit="10" d="M99.9,12c-5.8,0-11,8.1-14.2,20.6C82.4,20.1,77.3,12,71.4,12c-5.8,0-11,8.1-14.2,20.6C53.9,20.1,48.8,12,43,12
	c-9.9,0-17.8,23.3-17.8,51.9c0,28.7,8,51.9,17.8,51.9c5.8,0,11-8.1,14.2-20.6c3.3,12.5,8.4,20.6,14.2,20.6c5.8,0,11-8.1,14.2-20.6
	c3.3,12.5,8.4,20.6,14.2,20.6c9.9,0,17.8-23.3,17.8-51.9C117.8,35.3,109.8,12,99.9,12z"/></svg>