<svg xmlns="http://www.w3.org/2000/svg" viewBox="0 0 130 128"><path stroke="#4F4F4F" fill="none" stroke-width="2" stroke-miterlimit="10" d="M55.7,32.4C33,45.3,45,59.4,42,67.7c-3,8.3-32.4,19.8-24.8,33.5c6.8,12.3,20.3,2.2,29.3,5.5
	c6.8,2.4,7.2,21.1,27,9.3c21.7-16.8,9.2-21.3,15.7-34.3c6.5-13,49.8-30,37.3-49.3c-13.9-16.8-27.2,9.3-45.3,9.3
	C74.9,41.6,72.1,26,55.7,32.4L55.7,32.4z"/><path stroke="#4F4F4F" fill="none" stroke-width="2" stroke-miterlimit="10" d="M48.3,23.2c-22.7,12.9-10.8,27-13.7,35.3c-3,8.3-32.4,19.8-24.8,33.5c6.8,12.3,20.3,2.2,29.3,5.5
	c6.8,2.4,7.2,21.1,27,9.3C87.6,90,75.1,85.6,81.6,72.5s49.8-30,37.3-49.3c-13.9-16.8-27.2,9.3-45.3,9.3
	C67.4,32.5,64.6,16.8,48.3,23.2L48.3,23.2z"/><path stroke="#4F4F4F" fill="none" stroke-width="2" stroke-miterlimit="10" d="M40.8,13.6c-22.7,12.9-10.8,27-13.7,35.3c-3,8.3-32.4,19.8-24.8,33.5c6.8,12.3,20.3,2.2,29.3,5.5
	c6.8,2.4,7.2,21.1,27,9.3C80.2,80.4,67.7,76,74.2,62.9c6.5-13,49.8-30,37.3-49.3c-13.9-16.8-27.2,9.3-45.3,9.3
	C60,22.9,57.2,7.2,40.8,13.6z"/></svg>