<?xml version="1.0" encoding="utf-8"?>
<!-- Generator: Adobe Illustrator 24.0.2, SVG Export Plug-In . SVG Version: 6.00 Build 0)  -->
<svg version="1.1" id="Layer_1" xmlns="http://www.w3.org/2000/svg" xmlns:xlink="http://www.w3.org/1999/xlink" x="0px" y="0px"
	 viewBox="0 0 36 36" style="enable-background:new 0 0 36 36;" xml:space="preserve">
<style type="text/css">
	.st0{clip-path:url(#SVGID_2_);fill-rule:evenodd;clip-rule:evenodd;fill:#FFFFFF;}
</style>
<g>
	<defs>
		<rect id="SVGID_1_" width="36" height="36"/>
	</defs>
	<clipPath id="SVGID_2_">
		<use xlink:href="#SVGID_1_"  style="overflow:visible;"/>
	</clipPath>
	<path class="st0" d="M32,0H4C1.8,0,0,1.8,0,4v28c0,2.2,1.8,4,4,4h28c2.2,0,4-1.8,4-4V4C36,1.8,34.2,0,32,0z M10.9,31H5.5V13.7h5.4
		V31z M8.2,11.4C6.4,11.4,5,10,5,8.2C5,6.4,6.4,5,8.2,5s3.2,1.4,3.2,3.2C11.3,10,9.9,11.4,8.2,11.4z M31,31h-5.3v-9.1
		c0-2.5-0.9-3.9-2.9-3.9c-2.1,0-3.3,1.5-3.3,3.9V31h-5.1V13.7h5.1V16c0,0,1.5-2.9,5.2-2.9c3.7,0,6.3,2.2,6.3,6.9V31z"/>
</g>
</svg>
