<svg width="129" height="129" viewBox="0 0 129 129" fill="none" xmlns="http://www.w3.org/2000/svg">
<path d="M91.1406 95.8224C82.973 97.1349 73.8334 97.8749 64.1943 97.8749C29.4026 97.8749 1.19434 88.2984 1.19434 76.4858C1.19434 64.6732 29.3972 55.0967 64.1943 55.0967C98.9915 55.0967 127.194 64.6732 127.194 76.4858C127.194 83.8964 116.105 90.4211 99.2546 94.2614" stroke="#00078A" stroke-width="2" stroke-miterlimit="10"/>
<path d="M64.1943 84.55C98.9883 84.55 127.194 74.9737 127.194 63.1608C127.194 51.348 98.9883 41.7717 64.1943 41.7717C29.4004 41.7717 1.19434 51.348 1.19434 63.1608C1.19434 74.9737 29.4004 84.55 64.1943 84.55Z" stroke="#00078A" stroke-width="2" stroke-miterlimit="10"/>
<path d="M64.1943 71.2304C98.9883 71.2304 127.194 61.6541 127.194 49.8413C127.194 38.0284 98.9883 28.4521 64.1943 28.4521C29.4004 28.4521 1.19434 38.0284 1.19434 49.8413C1.19434 61.6541 29.4004 71.2304 64.1943 71.2304Z" stroke="#00078A" stroke-width="2" stroke-miterlimit="10"/>
<path d="M84.519 91.199L91.253 95.6712L86.8066 102.444" stroke="#00078A" stroke-width="2" stroke-miterlimit="10"/>
</svg>
