<svg xmlns="http://www.w3.org/2000/svg" viewBox="0 0 130 128"><path fill="none" stroke="#4F4F4F" stroke-width="2" stroke-miterlimit="10" d="M41.2,87.1c-0.2-1.2-0.3-2.3-0.3-3.5c0-13.3,10.8-24.1,24.1-24.1s24.1,10.8,24.1,24.1c0,1.2-0.1,2.4-0.3,3.5
	h40.1c0.1-1.2,0.1-2.3,0.1-3.5c0-35.3-28.6-64-64-64c-35.4,0-64,28.6-64,64c0,1.2,0,2.4,0.1,3.5H41.2L41.2,87.1z"/><path fill="none" stroke="#4F4F4F" stroke-width="2" stroke-miterlimit="10" d="M41.2,98.3c-0.2-1.2-0.3-2.3-0.3-3.5c0-13.3,10.8-24.1,24.1-24.1s24.1,10.8,24.1,24.1c0,1.2-0.1,2.4-0.3,3.5
	h40.1c0.1-1.2,0.1-2.3,0.1-3.5c0-35.3-28.6-64-64-64c-35.4,0-64,28.6-64,64c0,1.2,0,2.4,0.1,3.5H41.2L41.2,98.3z"/><path fill="none" stroke="#4F4F4F" stroke-width="2" stroke-miterlimit="10" d="M41.2,108.4c-0.2-1.2-0.3-2.3-0.3-3.5c0-13.3,10.8-24.1,24.1-24.1s24.1,10.8,24.1,24.1c0,1.2-0.1,2.4-0.3,3.5
	h40.1c0.1-1.2,0.1-2.3,0.1-3.5c0-35.3-28.6-64-64-64c-35.4,0-64,28.6-64,64c0,1.2,0,2.4,0.1,3.5H41.2L41.2,108.4z"/></svg>