<svg width="131" height="130" xmlns="http://www.w3.org/2000/svg" viewBox="0 0 131 130">
<path fill="none" stroke="#2E16BF" stroke-width="2" stroke-miterlimit="10" class="st0" d="M65.3,80.3c8.5,0,15.3-6.9,15.3-15.3c0-8.5-6.9-15.3-15.3-15.3C56.9,49.7,50,56.5,50,65
	C50,73.5,56.9,80.3,65.3,80.3z"/>
<path fill="none" stroke="#2E16BF" stroke-width="2" stroke-miterlimit="10" class="st0" d="M65.3,92.5c-15.2,0-27.5-12.3-27.5-27.5c0-15.2,12.3-27.5,27.5-27.5S92.8,49.8,92.8,65
	C92.8,80.2,80.5,92.5,65.3,92.5z"/>
<path fill="none" stroke="#2E16BF" stroke-width="2" stroke-miterlimit="10" class="st0" d="M65.3,104.7c-21.9,0-39.7-17.8-39.7-39.7c0-21.9,17.8-39.7,39.7-39.7C87.2,25.3,105,43.1,105,65
	C105,86.9,87.2,104.7,65.3,104.7z"/>
<path fill="none" stroke="#2E16BF" stroke-width="2" stroke-miterlimit="10" class="st0" d="M65.3,116.8c-28.6,0-51.9-23.3-51.9-51.8c0-28.6,23.3-51.8,51.9-51.8c28.6,0,51.9,23.3,51.9,51.8
	C117.2,93.6,93.9,116.8,65.3,116.8z"/>
<path fill="none" stroke="#2E16BF" stroke-width="2" stroke-miterlimit="10" class="st0" d="M65.3,129C30,129,1.3,100.3,1.3,65C1.3,29.7,30,1,65.3,1c35.3,0,64.1,28.7,64.1,64
	C129.4,100.3,100.7,129,65.3,129z"/>
</svg>
