<?xml version="1.0" encoding="utf-8"?>
<!-- Generator: Adobe Illustrator 24.0.2, SVG Export Plug-In . SVG Version: 6.00 Build 0)  -->
<svg version="1.1" id="Layer_1" xmlns="http://www.w3.org/2000/svg" xmlns:xlink="http://www.w3.org/1999/xlink" x="0px" y="0px"
	 viewBox="0 0 304 50" style="enable-background:new 0 0 304 50;" xml:space="preserve">
<style type="text/css">
	.st0{clip-path:url(#SVGID_2_);}
	.st1{fill:#FFFFFF;}
	.st2{fill:#FFFFFF;filter:url(#Adobe_OpacityMaskFilter);}
	.st3{mask:url(#mask0_503_968_1_);}
	.st4{fill:url(#SVGID_3_);}
	.st5{fill:#FFFFFF;filter:url(#Adobe_OpacityMaskFilter_1_);}
	.st6{mask:url(#mask1_503_968_1_);}
	.st7{fill:url(#SVGID_4_);}
	.st8{fill:#FFFFFF;filter:url(#Adobe_OpacityMaskFilter_2_);}
	.st9{mask:url(#mask2_503_968_1_);}
	.st10{fill:url(#SVGID_5_);}
</style>
<g>
	<defs>
		<rect id="SVGID_1_" width="303.7" height="50"/>
	</defs>
	<clipPath id="SVGID_2_">
		<use xlink:href="#SVGID_1_"  style="overflow:visible;"/>
	</clipPath>
	<g class="st0">
		<path class="st1" d="M300.7,12.9v10.8h-15.4V12.9h-2.5v24.5h2.5V26.1h15.4v11.4h2.5V12.9H300.7z"/>
		<path class="st1" d="M261.7,15.2h7.9v22.2h2.5V15.2h7.9v-2.3h-18.3V15.2z"/>
		<path class="st1" d="M260.1,20.3c0-4.6-3.2-7.4-8.5-7.4H242v24.5h2.5v-9.9h7.1c0.5,0,0.9,0,1.3-0.1l5.2,9.9l0,0.1h2.9L255.4,27
			C258.3,25.9,260.1,23.5,260.1,20.3L260.1,20.3z M257.6,20.3c0,3-2.3,4.9-6,4.9h-7.1v-10h7.1C255.3,15.2,257.6,17.2,257.6,20.3z"/>
		<path class="st1" d="M225.2,38.1c-7.1,0-12.9-5.8-12.9-12.9s5.8-12.9,12.9-12.9c7.1,0,12.9,5.8,12.9,12.9S232.3,38.1,225.2,38.1z
			 M225.2,14.9c-5.7,0-10.3,4.6-10.3,10.3s4.6,10.3,10.3,10.3c5.7,0,10.3-4.6,10.3-10.3S230.9,14.9,225.2,14.9z"/>
		<path class="st1" d="M205.9,34.4c0,0.8-0.3,1.3-0.9,1.3c-0.5,0-0.9-0.5-1.3-1.3l-4.1-9.2l-4.5-10.1c-0.8-1.7-2.1-2.7-3.5-2.7
			c-2,0-3.3,1.4-3.3,3.6v21.5h2.5V16c0-0.8,0.3-1.3,0.9-1.3c0.5,0,0.9,0.5,1.3,1.3l4.1,9.2l4.5,10c0.8,1.7,2.1,2.7,3.5,2.7
			c2,0,3.3-1.4,3.3-3.6V12.9h-2.5V34.4L205.9,34.4z"/>
		<path class="st1" d="M173.3,34.4c0,0.8-0.3,1.3-0.9,1.3c-0.5,0-0.9-0.5-1.3-1.3l-4.1-9.2l-4.5-10.1c-0.8-1.7-2.1-2.7-3.5-2.7
			c-2,0-3.3,1.4-3.3,3.6v21.5h2.5V16c0-0.8,0.3-1.3,0.9-1.3c0.5,0,0.9,0.5,1.3,1.3l4.1,9.2l4.5,10c0.8,1.7,2.1,2.7,3.5,2.7
			c2,0,3.3-1.4,3.3-3.6V12.9h-2.5V34.4L173.3,34.4z"/>
		<path class="st1" d="M136.3,26.1h13.9v-2.3h-13.9v-8.5h14.6v-2.3h-17.1v24.5h17.4v-2.3h-14.9V26.1z"/>
		<path class="st1" d="M121.8,12.9h-9v24.5h2.5V29h6.6c5.1,0,8.5-3.2,8.5-7.9S126.9,12.9,121.8,12.9z M121.8,26.6h-6.6V15.2h6.6
			c3.6,0,6,2.3,6,5.8S125.4,26.6,121.8,26.6z"/>
		<path class="st1" d="M96.3,38.1c-7.1,0-12.9-5.8-12.9-12.9s5.8-12.9,12.9-12.9c7.1,0,12.9,5.8,12.9,12.9S103.4,38.1,96.3,38.1z
			 M96.3,14.9c-5.7,0-10.3,4.6-10.3,10.3s4.6,10.3,10.3,10.3c5.7,0,10.3-4.6,10.3-10.3S101.9,14.9,96.3,14.9z"/>
		<defs>
			<filter id="Adobe_OpacityMaskFilter" filterUnits="userSpaceOnUse" x="-0.5" y="-2.3" width="75.3" height="52.4">
				<feColorMatrix  type="matrix" values="1 0 0 0 0  0 1 0 0 0  0 0 1 0 0  0 0 0 1 0"/>
			</filter>
		</defs>
		<mask maskUnits="userSpaceOnUse" x="-0.5" y="-2.3" width="75.3" height="52.4" id="mask0_503_968_1_">
			<path class="st2" d="M49.7,19c-3.6,0-6.1,2.6-6.1,6.1c0,10.3-8.3,18.6-18.6,18.6S6.3,35.4,6.3,25.1S14.7,6.5,24.9,6.5
				c3.4,0,6.1-2.7,6.1-6.1V0h-1.7v0.4c0,2.4-2,4.4-4.4,4.4c-11.2,0-20.3,9.1-20.3,20.3c0,11.2,9.1,20.3,20.3,20.3
				c11.2,0,20.3-9.1,20.3-20.3c0-2.6,1.8-4.4,4.4-4.4c2.4,0,4.4,2,4.4,4.4v24.4h1.7V25.1C55.8,21.7,53,19,49.7,19L49.7,19z"/>
		</mask>
		<g class="st3">
			
				<linearGradient id="SVGID_3_" gradientUnits="userSpaceOnUse" x1="5.296" y1="-3.847" x2="69.1276" y2="60.0663" gradientTransform="matrix(1 0 0 -1 0 52)">
				<stop  offset="0" style="stop-color:#2E16BF"/>
				<stop  offset="0.5" style="stop-color:#BD33ED;stop-opacity:0.98"/>
				<stop  offset="0.9" style="stop-color:#F94A2D;stop-opacity:0.98"/>
			</linearGradient>
			<path class="st4" d="M74.9-2.3H-0.5v52.4h75.3V-2.3z"/>
		</g>
		<defs>
			<filter id="Adobe_OpacityMaskFilter_1_" filterUnits="userSpaceOnUse" x="-0.5" y="-2.3" width="75.3" height="52.4">
				<feColorMatrix  type="matrix" values="1 0 0 0 0  0 1 0 0 0  0 0 1 0 0  0 0 0 1 0"/>
			</filter>
		</defs>
		<mask maskUnits="userSpaceOnUse" x="-0.5" y="-2.3" width="75.3" height="52.4" id="mask1_503_968_1_">
			<path class="st5" d="M49.7,0.2c-3.2,0-6.3,0.6-9.1,1.7c0-0.5,0.1-0.9,0.1-1.4V0h-1.7v0.5c0,0.7-0.1,1.5-0.2,2.2
				c-1.5,0.7-2.9,1.6-4.2,2.5c0.7-1.4,1.1-3.1,1.1-4.8V0H34v0.4c0,5-4.1,9-9,9c-8.7,0-15.7,7-15.7,15.7s7,15.7,15.7,15.7
				c8.7,0,15.7-7,15.7-15.7c0-5.1,3.9-9,9-9c5.2,0,9,4,9,9v24.4h1.7V25.1c0-5.9-4.8-10.7-10.7-10.7S38.9,19,38.9,25.1
				c0,7.7-6.3,14-14,14s-14-6.3-14-14s6.3-14,14-14c1.7,0,3.3-0.4,4.8-1.1c-1,1.3-1.8,2.7-2.5,4.2c-0.7,0.1-1.5,0.2-2.2,0.2
				c-5.9,0-10.7,4.8-10.7,10.7S19,35.9,24.9,35.9c5.9,0,10.7-4.8,10.7-10.8c0-7.8,6.1-13.9,14-13.9s14,6.3,14,14v24.4h1.7V25.1
				c0-8.6-7-15.7-15.7-15.7S34,16.3,34,25.1c0,5-4.1,9.1-9,9.1c-5,0-9-4-9-9c0-5,4.1-9,9-9c0.5,0,1,0,1.5-0.1
				c-0.4,1-0.7,1.9-0.9,2.9c-0.2,0-0.4,0-0.6,0c-3.4,0-6.1,2.7-6.1,6.1c0,3.4,2.8,6.1,6.1,6.1c3.4,0,6.1-2.8,6.1-6.2
				c0-10.4,8.2-18.5,18.6-18.5c10.4,0,18.6,8.3,18.6,18.6v24.4H70V25.1c0-11.2-9.1-20.3-20.3-20.3c-11.2,0-20.3,8.9-20.3,20.2
				c0,2.5-2,4.5-4.4,4.5s-4.4-2-4.4-4.4c0-2.4,2-4.4,4.4-4.4c0.1,0,0.1,0,0.2,0c-0.2,1-0.3,1.9-0.3,2.9c-0.7,0.1-1.3,0.7-1.3,1.5
				c0,0.8,0.7,1.5,1.5,1.5s1.5-0.7,1.5-1.5c0-13,10.2-23.1,23.2-23.1s23.2,10.4,23.2,23.2v24.4h1.7V25.1
				C74.6,11.4,63.4,0.2,49.7,0.2L49.7,0.2z"/>
		</mask>
		<g class="st6">
			
				<linearGradient id="SVGID_4_" gradientUnits="userSpaceOnUse" x1="5.2961" y1="-3.8471" x2="69.1277" y2="60.0662" gradientTransform="matrix(1 0 0 -1 0 52)">
				<stop  offset="0" style="stop-color:#2E16BF"/>
				<stop  offset="0.5" style="stop-color:#BD33ED;stop-opacity:0.98"/>
				<stop  offset="0.9" style="stop-color:#F94A2D;stop-opacity:0.98"/>
			</linearGradient>
			<path class="st7" d="M74.9-2.3H-0.5v52.4h75.3V-2.3z"/>
		</g>
		<defs>
			<filter id="Adobe_OpacityMaskFilter_2_" filterUnits="userSpaceOnUse" x="-0.5" y="-2.3" width="75.3" height="52.4">
				<feColorMatrix  type="matrix" values="1 0 0 0 0  0 1 0 0 0  0 0 1 0 0  0 0 0 1 0"/>
			</filter>
		</defs>
		<mask maskUnits="userSpaceOnUse" x="-0.5" y="-2.3" width="75.3" height="52.4" id="mask2_503_968_1_">
			<path class="st8" d="M49.7,23.6c-0.9,0-1.5,0.6-1.5,1.5c0,12.8-10.4,23.2-23.2,23.2c-12.8,0-23.2-10.4-23.2-23.2
				C1.7,12.3,11.6,2.5,23.9,2c0.3,0,0.6,0,1-0.1c0.9,0,1.5-0.7,1.5-1.5c0,0,0-0.2-0.2-0.2c-0.2,0-0.5,0-1.2,0l-0.9,0
				C10.8,0.7,0,11.7,0,25.1C0,38.6,11.2,50,24.9,50c12.3,0,22.5-8.9,24.5-20.6v20.1h1.7V25.1C51.2,24.2,50.5,23.6,49.7,23.6z"/>
		</mask>
		<g class="st9">
			
				<linearGradient id="SVGID_5_" gradientUnits="userSpaceOnUse" x1="5.2961" y1="-3.8471" x2="69.1277" y2="60.0662" gradientTransform="matrix(1 0 0 -1 0 52)">
				<stop  offset="0" style="stop-color:#2E16BF"/>
				<stop  offset="0.5" style="stop-color:#BD33ED;stop-opacity:0.98"/>
				<stop  offset="0.9" style="stop-color:#F94A2D;stop-opacity:0.98"/>
			</linearGradient>
			<path class="st10" d="M74.9-2.3H-0.5v52.4h75.3V-2.3z"/>
		</g>
	</g>
</g>
</svg>
