<svg width="1075" height="98" viewBox="0 0 1075 98" fill="none" xmlns="http://www.w3.org/2000/svg">
<g clip-path="url(#clip0_181_23338)">
<path d="M722.633 25.9273H705.068V73.5775H709.902V57.0517H722.633C732.494 57.0517 739.115 50.8655 739.115 41.6523C739.115 32.439 732.494 25.9185 722.633 25.9185V25.9273ZM722.633 52.5639H709.902V30.4151H722.633C729.606 30.4151 734.29 34.9293 734.29 41.6611C734.29 48.3928 729.606 52.5639 722.633 52.5639Z" fill="white"/>
<path d="M750.79 51.4639H777.715V46.9673H750.79V30.4151H779.132V25.9272H745.957V73.5775H779.801V69.0896H750.79V51.4639Z" fill="white"/>
<path d="M822.618 67.6289C822.618 69.1336 821.966 70.1016 820.954 70.1016C820.073 70.1016 819.122 69.1248 818.453 67.5321L810.423 49.66L801.716 30.0983C800.175 26.7984 797.666 24.9153 794.831 24.9153C790.948 24.9153 788.333 27.7136 788.333 31.8846V73.5863H793.166V31.8846C793.166 30.3799 793.818 29.4119 794.831 29.4119C795.711 29.4119 796.662 30.3887 797.331 31.9814L805.361 49.8536L814.068 69.3448C815.627 72.6799 818.136 74.5982 820.954 74.5982C824.836 74.5982 827.451 71.7999 827.451 67.6289V25.9272H822.618V67.6289Z" fill="white"/>
<path d="M885.887 67.6289C885.887 69.1336 885.236 70.1016 884.223 70.1016C883.343 70.1016 882.392 69.1248 881.723 67.5321L873.693 49.66L864.985 30.0983C863.444 26.7984 860.935 24.9153 858.1 24.9153C854.217 24.9153 851.602 27.7136 851.602 31.8846V73.5863H856.436V31.8846C856.436 30.3799 857.088 29.4119 858.1 29.4119C858.981 29.4119 859.94 30.3887 860.601 31.9814L868.63 49.8536L877.338 69.3448C878.896 72.6799 881.406 74.5982 884.223 74.5982C888.106 74.5982 890.721 71.7999 890.721 67.6289V25.9272H885.887V67.6289Z" fill="white"/>
<path d="M991.137 40.3147C991.137 31.4446 984.824 25.9272 974.655 25.9272H956.077V73.5775H960.911V54.359H974.655C975.553 54.359 976.407 54.2974 977.226 54.2358L987.351 73.4631L987.413 73.5775H993.118L981.998 53.1798C987.817 51.1207 991.146 46.4481 991.146 40.3059L991.137 40.3147ZM986.303 40.3147C986.303 46.2105 981.839 49.8712 974.646 49.8712H960.902V30.4239H974.646C981.83 30.4239 986.303 34.2165 986.303 40.3147Z" fill="white"/>
<path d="M994.333 30.4151H1009.64V73.5775H1014.48V30.4151H1029.87V25.9272H994.333V30.4151Z" fill="white"/>
<path d="M1070.18 25.9272V46.9673H1040.25V25.9272H1035.42V73.5775H1040.25V51.4639H1070.18V73.5775H1075V25.9272H1070.18Z" fill="white"/>
<path d="M672.993 74.7742C659.188 74.7742 647.962 63.5458 647.962 49.7567C647.962 35.9676 659.197 24.7393 672.993 24.7393C686.79 24.7393 698.025 35.9676 698.025 49.7567C698.025 63.5458 686.79 74.7742 672.993 74.7742ZM672.993 29.7199C661.944 29.7199 652.945 38.7043 652.945 49.7567C652.945 60.8091 661.935 69.7936 672.993 69.7936C684.052 69.7936 693.041 60.8091 693.041 49.7567C693.041 38.7043 684.052 29.7199 672.993 29.7199Z" fill="white"/>
<path d="M923.527 74.7742C909.721 74.7742 898.495 63.5458 898.495 49.7567C898.495 35.9676 909.73 24.7393 923.527 24.7393C937.323 24.7393 948.558 35.9676 948.558 49.7567C948.558 63.5458 937.323 74.7742 923.527 74.7742ZM923.527 29.7199C912.477 29.7199 903.479 38.7043 903.479 49.7567C903.479 60.8091 912.468 69.7936 923.527 69.7936C934.585 69.7936 943.575 60.8091 943.575 49.7567C943.575 38.7043 934.585 29.7199 923.527 29.7199Z" fill="white"/>
<path d="M582.483 37.2964C575.571 37.2964 570.561 42.277 570.561 49.1408C570.561 69.0896 554.361 85.3162 534.436 85.3162C514.511 85.3162 498.32 69.1248 498.32 49.22C498.32 29.3151 514.52 13.1237 534.436 13.1237C541.013 13.1237 546.357 7.77351 546.357 1.20895V0.425781H543.029V1.20895C543.029 5.95198 539.173 9.80623 534.427 9.80623C512.68 9.80623 494.983 27.4936 494.983 49.2288C494.983 70.964 512.68 88.6513 534.427 88.6513C556.175 88.6513 573.872 70.9376 573.872 49.1584C573.872 44.0634 577.323 40.6315 582.474 40.6315C587.219 40.6315 591.076 44.4857 591.076 49.2288V96.5534H594.404V49.2288C594.404 42.6554 589.051 37.314 582.483 37.314V37.2964Z" fill="white"/>
<path d="M582.482 0.830587C576.205 0.830587 570.244 1.97455 564.785 4.06007C564.873 3.1625 564.917 2.26493 564.917 1.36737V0.408203H561.589V1.35857C561.58 2.76652 561.457 4.18326 561.228 5.56481C558.349 6.93756 555.646 8.5831 553.128 10.4662C554.519 7.66793 555.312 4.51765 555.312 1.19137V0.408203H551.983V1.19137C551.983 10.871 544.103 18.7379 534.427 18.7379C517.619 18.7379 503.946 32.4038 503.946 49.2024C503.946 66.001 517.619 79.6669 534.427 79.6669C551.235 79.6669 564.908 65.9658 564.908 49.132C564.908 39.1708 572.454 31.6558 582.465 31.6558C592.476 31.6558 600.021 39.5316 600.021 49.2024V96.527H603.349V49.2024C603.349 37.6924 593.981 28.3296 582.465 28.3296C570.948 28.3296 561.58 37.27 561.58 49.132C561.58 64.1354 549.395 76.3494 534.418 76.3494C519.442 76.3494 507.256 64.1706 507.256 49.2024C507.256 34.2341 519.442 22.0554 534.418 22.0554C537.746 22.0554 540.89 21.2722 543.69 19.8819C541.805 22.3898 540.15 25.1001 538.785 27.9688C537.35 28.1976 535.889 28.3296 534.427 28.3296C522.911 28.3296 513.543 37.6924 513.543 49.2024C513.543 60.7124 522.911 70.0752 534.427 70.0752C545.943 70.0752 555.312 60.6772 555.312 49.132C555.312 33.9526 567.242 22.0554 582.474 22.0554C597.705 22.0554 609.636 34.2341 609.636 49.2024V96.527H612.964V49.2024C612.964 32.4038 599.29 18.7379 582.482 18.7379C565.674 18.7379 552.001 32.087 552.001 49.132C552.001 58.8468 544.121 66.7577 534.445 66.7577C524.769 66.7577 516.888 58.882 516.888 49.2112C516.888 39.5403 524.769 31.6646 534.445 31.6646C535.396 31.6646 536.355 31.6206 537.297 31.5326C536.593 33.3894 535.986 35.2989 535.501 37.27C535.149 37.2788 534.788 37.2964 534.436 37.2964C527.859 37.2964 522.515 42.6466 522.515 49.2112C522.515 55.7757 527.868 61.1259 534.436 61.1259C541.004 61.1259 546.357 55.7494 546.357 49.1408C546.357 28.9367 562.223 13.1149 582.474 13.1149C602.724 13.1149 618.59 29.3063 618.59 49.2112V96.5358H621.918V49.2112C621.918 27.476 604.221 9.78865 582.474 9.78865C560.726 9.78865 543.029 27.0712 543.029 49.1408C543.029 53.919 539.173 57.8085 534.427 57.8085C529.681 57.8085 525.825 53.9542 525.825 49.2112C525.825 44.4682 529.681 40.6139 534.427 40.6139C534.55 40.6139 534.682 40.6051 534.806 40.6051C534.489 42.4618 534.26 44.345 534.154 46.2721C532.71 46.4393 531.583 47.6536 531.583 49.1408C531.583 50.7423 532.886 52.0447 534.489 52.0447C536.091 52.0447 537.385 50.7423 537.394 49.1496C537.394 23.9297 557.196 4.16566 582.474 4.16566C607.751 4.16566 627.553 24.3785 627.553 49.22V96.5446H630.881V49.22C630.881 22.5482 609.169 0.839387 582.474 0.839387L582.482 0.830587Z" fill="white"/>
<path d="M582.482 46.2457C580.748 46.2457 579.515 47.504 579.515 49.1408C579.515 74.0263 559.291 94.2655 534.436 94.2655C509.581 94.2655 489.357 74.0527 489.357 49.2112C489.357 24.3697 508.542 5.23041 532.508 4.20965C533.054 4.18325 533.74 4.13925 534.436 4.11285C536.135 4.04245 537.359 2.8017 537.359 1.19136C537.359 1.19136 537.394 0.830574 536.919 0.830574C536.584 0.821775 535.933 0.821775 534.603 0.830574L532.904 0.883372C506.922 1.70174 486.037 23.0497 486.037 49.2112C486.037 75.3726 507.749 97.5918 534.445 97.5918C558.287 97.5918 578.159 80.2476 582.13 57.5093V96.5446H585.458V49.1496C585.458 47.5128 584.129 46.2545 582.491 46.2545L582.482 46.2457Z" fill="white"/>
<path d="M34.2849 67.6289C34.2849 69.1336 33.6334 70.1016 32.6208 70.1016C31.7404 70.1016 30.7895 69.116 30.1204 67.5321L22.0906 49.66L13.3829 30.0895C11.8421 26.7896 9.33282 24.9065 6.49776 24.9065C2.60615 24.9065 0 27.7048 0 31.8758V73.5863H4.8337V31.8758C4.8337 30.3711 5.48523 29.4031 6.49776 29.4031C7.37821 29.4031 8.33791 30.3887 8.99825 31.9726L17.028 49.8448L25.7357 69.3448C27.2941 72.6799 29.8034 74.5982 32.6208 74.5982C36.5125 74.5982 39.1186 71.7999 39.1186 67.6289V25.9185H34.2849V67.6289Z" fill="white"/>
<path d="M137.914 40.3059C137.914 31.4271 131.593 25.9185 121.424 25.9185H102.846V73.5863H107.68V54.359H121.432C122.33 54.359 123.184 54.2974 124.003 54.2358L134.129 73.4631L134.19 73.5775H139.895L128.775 53.171C134.595 51.1119 137.923 46.4305 137.923 40.2971L137.914 40.3059ZM133.081 40.3059C133.081 46.2017 128.617 49.8624 121.424 49.8624H107.671V30.4063H121.424C128.617 30.4063 133.081 34.1989 133.081 40.3059Z" fill="white"/>
<path d="M162.47 25.9185H146.455V73.5863H162.47C176.531 73.5863 185.978 64.2762 185.978 50.4255C185.978 35.7653 176.531 25.9185 162.47 25.9185ZM181.145 50.4255C181.145 61.5923 173.643 69.0897 162.47 69.0897H151.289V30.4063H162.47C173.643 30.4063 181.145 38.4492 181.145 50.4255Z" fill="white"/>
<path d="M293.473 55.3182C293.473 63.9418 287.733 69.732 279.183 69.732C270.634 69.732 264.823 63.9418 264.823 55.3182V25.4169H259.99V55.3182C259.99 66.5465 267.702 74.0879 279.175 74.0879C290.647 74.0879 298.298 66.5465 298.298 55.3182V25.4169H293.464V55.3182H293.473Z" fill="white"/>
<path d="M329.792 66.485C329.202 68.4385 327.925 69.5649 326.297 69.5649C324.201 69.5649 323.197 67.8841 322.731 66.485L309.498 25.5401L309.445 25.3905H304.382L318.381 68.0425C319.649 71.9144 322.528 74.1319 326.288 74.1319C330.047 74.1319 332.926 71.9144 334.194 68.0425L348.097 25.6809L348.194 25.3905H343.069L329.792 66.4938V66.485Z" fill="white"/>
<path d="M359.393 51.4639H386.317V46.9673H359.393V30.4151H387.735V25.9185H354.559V73.5863H388.413V69.0984H359.393V51.4639Z" fill="white"/>
<path d="M432.013 40.3059C432.013 31.4271 425.691 25.9185 415.522 25.9185H396.944V73.5863H401.778V54.359H415.531C416.429 54.359 417.283 54.2974 418.102 54.2358L428.227 73.4631L428.289 73.5775H433.994L422.874 53.171C428.694 51.1119 432.022 46.4305 432.022 40.2971L432.013 40.3059ZM427.179 40.3059C427.179 46.2017 422.715 49.8624 415.522 49.8624H401.769V30.4063H415.522C422.715 30.4063 427.179 34.1989 427.179 40.3059Z" fill="white"/>
<path d="M435.209 25.9185V30.4151H450.529V73.5863H455.362V30.4151H470.753V25.9185H435.209Z" fill="white"/>
<path d="M71.2201 74.783C57.4145 74.783 46.1799 63.5546 46.1799 49.7567C46.1799 35.9589 57.4145 24.7305 71.2201 24.7305C85.0256 24.7305 96.2602 35.9589 96.2602 49.7567C96.2602 63.5546 85.0256 74.783 71.2201 74.783ZM71.2201 29.7199C60.1616 29.7199 51.1721 38.7132 51.1721 49.7567C51.1721 60.8003 60.1704 69.7936 71.2201 69.7936C82.2698 69.7936 91.268 60.8003 91.268 49.7567C91.268 38.7132 82.2698 29.7199 71.2201 29.7199Z" fill="white"/>
<path d="M228.777 74.783C214.972 74.783 203.737 63.5546 203.737 49.7567C203.737 35.9589 214.972 24.7305 228.777 24.7305C242.583 24.7305 253.818 35.9589 253.818 49.7567C253.818 63.5546 242.583 74.783 228.777 74.783ZM228.777 29.7199C217.719 29.7199 208.729 38.7132 208.729 49.7567C208.729 60.8003 217.728 69.7936 228.777 69.7936C239.827 69.7936 248.825 60.8003 248.825 49.7567C248.825 38.7132 239.827 29.7199 228.777 29.7199Z" fill="white"/>
</g>
<defs>
<clipPath id="clip0_181_23338">
<rect width="1075" height="98" fill="white"/>
</clipPath>
</defs>
</svg>
