<svg width="1162" height="178" viewBox="0 0 1162 178" fill="none" xmlns="http://www.w3.org/2000/svg">
<path d="M361.228 122.19C361.228 124.93 360.034 126.693 358.178 126.693C356.565 126.693 354.822 124.898 353.596 122.014L338.881 89.4725L322.923 53.8386C320.1 47.8302 315.501 44.4014 310.306 44.4014C303.174 44.4014 298.398 49.4965 298.398 57.0911V133.037H307.256V57.0911C307.256 54.3513 308.45 52.5888 310.306 52.5888C311.919 52.5888 313.678 54.3833 314.888 57.2674L329.603 89.809L345.561 125.315C348.417 131.387 353.015 134.88 358.178 134.88C365.31 134.88 370.086 129.785 370.086 122.19V46.2439H361.228V122.19Z" fill="white"/>
<path d="M551.134 72.4408C551.134 56.2742 539.55 46.2441 520.914 46.2441H486.869V133.038H495.727V98.0287H520.93C522.576 98.0287 524.141 97.9165 525.641 97.8043L544.196 132.813L544.309 133.022H554.765L534.386 95.8656C545.052 92.1164 551.151 83.5924 551.151 72.4248L551.134 72.4408ZM542.276 72.4408C542.276 83.1759 534.096 89.8412 520.914 89.8412H495.711V54.4156H520.914C534.096 54.4156 542.276 61.3213 542.276 72.4408Z" fill="white"/>
<path d="M596.119 46.244H566.77V133.038H596.119C621.886 133.038 639.199 116.086 639.199 90.8665C639.199 64.1731 621.886 46.244 596.119 46.244ZM630.341 90.8665C630.341 111.199 616.594 124.85 596.119 124.85H575.628V54.4155H596.119C616.594 54.4155 630.341 69.06 630.341 90.8665Z" fill="white"/>
<path d="M836.191 99.775C836.191 115.477 825.671 126.02 810.004 126.02C794.337 126.02 783.688 115.477 783.688 99.775V45.3308H774.83V99.775C774.83 120.22 788.964 133.951 809.988 133.951C831.012 133.951 845.033 120.22 845.033 99.775V45.3308H836.175V99.775H836.191Z" fill="white"/>
<path d="M902.763 120.107C901.681 123.664 899.342 125.715 896.357 125.715C892.517 125.715 890.677 122.655 889.822 120.107L865.572 45.5551L865.475 45.2827H856.197L881.852 122.943C884.175 129.993 889.451 134.031 896.341 134.031C903.23 134.031 908.507 129.993 910.83 122.943L936.307 45.8115L936.484 45.2827H927.094L902.763 120.124V120.107Z" fill="white"/>
<path d="M956.992 92.7572H1006.33V84.5697H956.992V54.4315H1008.93V46.244H948.134V133.038H1010.17V124.85H956.992V92.7572Z" fill="white"/>
<path d="M1090.07 72.4407C1090.07 56.2741 1078.49 46.244 1059.85 46.244H1025.81V133.038H1034.67V98.0285H1059.87C1061.51 98.0285 1063.08 97.9164 1064.58 97.8042L1083.13 132.813L1083.25 133.022H1093.7L1073.32 95.8655C1083.99 92.1163 1090.09 83.5923 1090.09 72.4247L1090.07 72.4407ZM1081.21 72.4407C1081.21 83.1757 1073.03 89.8411 1059.85 89.8411H1034.65V54.4155H1059.85C1073.03 54.4155 1081.21 61.3211 1081.21 72.4407Z" fill="white"/>
<path d="M1095.93 46.244V54.4315H1124V133.038H1132.86V54.4315H1161.07V46.244H1095.93Z" fill="white"/>
<path d="M428.898 135.217C403.599 135.217 383.011 114.772 383.011 89.6489C383.011 64.5257 403.599 44.0811 428.898 44.0811C454.198 44.0811 474.786 64.5257 474.786 89.6489C474.786 114.772 454.198 135.217 428.898 135.217ZM428.898 53.1658C408.633 53.1658 392.159 69.5407 392.159 89.6489C392.159 109.757 408.649 126.132 428.898 126.132C449.148 126.132 465.637 109.757 465.637 89.6489C465.637 69.5407 449.148 53.1658 428.898 53.1658Z" fill="white"/>
<path d="M717.631 135.217C692.331 135.217 671.743 114.772 671.743 89.6489C671.743 64.5257 692.331 44.0811 717.631 44.0811C742.93 44.0811 763.518 64.5257 763.518 89.6489C763.518 114.772 742.93 135.217 717.631 135.217ZM717.631 53.1658C697.365 53.1658 680.892 69.5408 680.892 89.6489C680.892 109.757 697.382 126.132 717.631 126.132C737.88 126.132 754.37 109.757 754.37 89.6489C754.37 69.5408 737.88 53.1658 717.631 53.1658Z" fill="white"/>
<path d="M88.7255 67.6821C101.391 67.6821 110.588 76.7508 110.588 89.2643C110.588 125.587 140.293 155.149 176.806 155.149C213.319 155.149 243.007 125.651 243.007 89.4085C243.007 53.1497 213.303 23.6684 176.806 23.6684C164.753 23.6684 154.943 13.9268 154.943 1.95804V0.5H161.042V1.926C161.042 10.5621 168.109 17.5799 176.806 17.5799C216.675 17.5799 249.106 49.785 249.106 89.3765C249.106 128.968 216.675 161.173 176.806 161.173C136.937 161.173 104.505 128.904 104.505 89.2483C104.505 79.9713 98.1644 73.7225 88.7417 73.7225C80.045 73.7225 72.9779 80.7404 72.9779 89.3765V175.577H66.8789V89.3765C66.8789 77.4077 76.6889 67.6661 88.7417 67.6661L88.7255 67.6821Z" fill="white"/>
<path d="M88.7257 1.26908C100.23 1.26908 111.153 3.35199 121.157 7.14931C120.995 5.51502 120.915 3.88073 120.915 2.24645V0.5H127.014V2.23042C127.03 4.79401 127.256 7.37363 127.675 9.88915C132.951 12.3886 137.921 15.3848 142.519 18.8136C139.97 13.7185 138.518 7.98248 138.518 1.926V0.5H144.617V1.926C144.617 19.5507 159.058 33.8908 176.806 33.8908C207.624 33.8908 232.681 58.7896 232.681 89.3765C232.681 119.979 207.608 144.862 176.806 144.862C145.988 144.862 120.931 119.915 120.931 89.2483C120.931 71.0949 107.087 57.4117 88.7419 57.4117C70.9935 57.4117 56.5528 71.7518 56.5528 89.3765V175.577H50.4538V89.3765C50.4538 68.4191 67.6213 51.3552 88.7419 51.3552C110.572 51.3552 127.03 67.65 127.03 89.2483C127.03 116.583 149.361 138.822 176.822 138.822C204.268 138.822 226.598 116.647 226.598 89.3925C226.598 62.1383 204.268 39.9472 176.822 39.9472C170.723 39.9472 164.947 38.5212 159.832 35.9897C163.285 40.5561 166.318 45.491 168.819 50.7303C171.449 51.1469 174.128 51.3873 176.822 51.3873C197.927 51.3873 215.11 68.4351 215.11 89.4085C215.11 110.382 197.943 127.43 176.822 127.43C155.718 127.43 138.534 110.318 138.534 89.2803C138.534 61.6256 116.671 39.9793 88.758 39.9793C61.3126 39.9793 38.9657 62.1543 38.9657 89.4245V175.625H32.8668V89.4245C32.8668 58.8217 57.9404 33.9388 88.7419 33.9388C119.543 33.9388 144.617 58.2609 144.617 89.2963C144.617 106.985 159.058 121.389 176.806 121.389C194.554 121.389 208.995 107.049 208.995 89.4245C208.995 71.7999 194.554 57.4598 176.806 57.4598C175.063 57.4598 173.305 57.3797 171.562 57.2194C172.853 60.6002 173.966 64.077 174.854 67.6661C175.499 67.6821 176.161 67.7141 176.806 67.7141C188.859 67.7141 198.669 77.4558 198.669 89.4245C198.669 101.393 188.859 111.135 176.806 111.135C164.753 111.135 154.943 101.345 154.943 89.2963C154.943 52.5088 125.868 23.6845 88.7419 23.6845C52.2286 23.6845 22.5404 53.1818 22.5404 89.4245V175.625H16.4414V89.4245C16.4414 49.8331 48.8726 17.628 88.7419 17.628C129.289 17.628 161.042 49.1121 161.042 89.2963C161.042 97.9965 168.109 105.078 176.806 105.078C185.503 105.078 192.57 98.0606 192.57 89.4245C192.57 80.7884 185.503 73.7706 176.806 73.7706C176.58 73.7706 176.338 73.7546 176.112 73.7546C176.693 77.1353 177.113 80.5641 177.306 84.073C179.952 84.3775 182.018 86.5886 182.018 89.2963C182.018 92.2124 179.63 94.5838 176.693 94.5838C173.757 94.5838 171.369 92.2124 171.369 89.2963C171.369 43.36 135.065 7.37363 88.7419 7.37363C43.177 7.37363 6.11512 44.1772 6.11512 89.4245V175.625H0V89.4245C0 40.7964 39.8048 1.26908 88.7257 1.26908Z" fill="white"/>
<path d="M88.7265 83.993C91.9051 83.993 94.164 86.2842 94.164 89.2643C94.164 134.576 131.226 171.443 176.791 171.443C222.356 171.443 259.417 134.64 259.417 89.3925C259.417 44.1451 224.26 9.28032 180.324 7.42171C179.324 7.37365 178.065 7.29353 176.791 7.24547C173.677 7.11729 171.434 4.85812 171.434 1.92602C171.434 1.92602 171.369 1.2691 172.241 1.2691C172.854 1.25307 174.048 1.25307 176.484 1.2691L179.598 1.36523C227.228 2.85532 265.516 41.7418 265.516 89.3925C265.516 137.973 225.712 177.5 176.791 177.5C133.081 177.5 96.6649 145.92 89.3881 104.502V175.593H83.2891V89.2643C83.2891 86.2842 85.7254 83.993 88.7265 83.993Z" fill="white"/>
</svg>
