<svg width="326" height="50" xmlns="http://www.w3.org/2000/svg" fill="none" viewBox="0 0 326.1 49.7">
<path fill="#00078A" d="M101.4,34.2c0,0.8-0.3,1.3-0.9,1.3c-0.5,0-0.9-0.5-1.3-1.3L95.2,25l-4.5-10c-0.8-1.7-2.1-2.7-3.5-2.7
	c-2,0-3.3,1.4-3.3,3.6v21.3h2.5V15.9c0-0.8,0.3-1.3,0.9-1.3c0.5,0,0.9,0.5,1.3,1.3l4.1,9.1l4.5,10c0.8,1.7,2.1,2.7,3.5,2.7
	c2,0,3.3-1.4,3.3-3.6V12.8h-2.5V34.2z"/>
<path fill="#00078A" d="M154.8,20.2c0-4.5-3.3-7.4-8.5-7.4h-9.6v24.4h2.5v-9.8h7.1c0.5,0,0.9,0,1.3-0.1l5.2,9.8l0,0.1h2.9l-5.7-10.4
	C153.1,25.7,154.8,23.3,154.8,20.2L154.8,20.2z M152.3,20.2c0,3-2.3,4.9-6,4.9h-7.1v-9.9h7.1C150,15.1,152.3,17.1,152.3,20.2z"/>
<path fill="#00078A" d="M167.4,12.8h-8.2v24.4h8.2c7.2,0,12.1-4.8,12.1-11.8C179.5,17.9,174.6,12.8,167.4,12.8z M177,25.4
	c0,5.7-3.9,9.5-9.6,9.5h-5.8V15.1h5.8C173.2,15.1,177,19.3,177,25.4z"/>
<path fill="#00078A" d="M234.8,27.9c0,4.4-3,7.4-7.4,7.4s-7.4-3-7.4-7.4V12.6h-2.5v15.3c0,5.7,4,9.6,9.9,9.6c5.9,0,9.8-3.9,9.8-9.6
	V12.6h-2.5L234.8,27.9L234.8,27.9z"/>
<path fill="#00078A" d="M253.5,33.6c-0.3,1-1,1.6-1.8,1.6c-1.1,0-1.6-0.9-1.8-1.6l-6.8-20.9l0-0.1h-2.6l7.2,21.8
	c0.7,2,2.1,3.1,4.1,3.1c1.9,0,3.4-1.1,4.1-3.1l7.2-21.7l0-0.1h-2.6L253.5,33.6L253.5,33.6z"/>
<path fill="#00078A" d="M268.8,25.9h13.9v-2.3h-13.9v-8.5h14.6v-2.3h-17.1v24.4h17.4v-2.3h-14.9V25.9z"/>
<path fill="#00078A" d="M306.1,20.2c0-4.5-3.3-7.4-8.5-7.4h-9.6v24.4h2.5v-9.8h7.1c0.5,0,0.9,0,1.3-0.1l5.2,9.8l0,0.1h2.9l-5.7-10.4
	C304.4,25.7,306.1,23.3,306.1,20.2L306.1,20.2z M303.6,20.2c0,3-2.3,4.9-6,4.9h-7.1v-9.9h7.1C301.3,15.1,303.6,17.1,303.6,20.2z"/>
<path fill="#00078A" d="M307.8,12.8v2.3h7.9v22.1h2.5V15.1h7.9v-2.3H307.8z"/>
<path fill="#00078A" d="M120.4,37.8c-7.1,0-12.9-5.7-12.9-12.8c0-7.1,5.8-12.8,12.9-12.8c7.1,0,12.9,5.7,12.9,12.8
	C133.3,32.1,127.6,37.8,120.4,37.8z M120.4,14.8c-5.7,0-10.3,4.6-10.3,10.2c0,5.6,4.6,10.2,10.3,10.2c5.7,0,10.3-4.6,10.3-10.2
	C130.8,19.4,126.1,14.8,120.4,14.8z"/>
<path fill="#00078A" d="M201.5,37.8c-7.1,0-12.9-5.7-12.9-12.8c0-7.1,5.8-12.8,12.9-12.8c7.1,0,12.9,5.7,12.9,12.8
	C214.4,32.1,208.6,37.8,201.5,37.8z M201.5,14.8c-5.7,0-10.3,4.6-10.3,10.2s4.6,10.2,10.3,10.2s10.3-4.6,10.3-10.2
	S207.2,14.8,201.5,14.8z"/>
<linearGradient id="SVGID_1_" gradientUnits="userSpaceOnUse" x1="7.4935" y1="43.6578" x2="63.4566" y2="15.232">
	<stop  offset="0" style="stop-color:#2E16BF"/>
	<stop  offset="0.5" style="stop-color:#BD33ED;stop-opacity:0.98"/>
	<stop  offset="0.9" style="stop-color:#F94A2D;stop-opacity:0.98"/>
</linearGradient>
<path fill="url(#SVGID_1_)" d="M24.9,18.9c3.6,0,6.1,2.5,6.1,6.1c0,10.2,8.3,18.5,18.6,18.5S68.2,35.1,68.2,25
	c0-10.2-8.3-18.5-18.6-18.5c-3.4,0-6.1-2.7-6.1-6.1V0h1.7v0.4c0,2.4,2,4.4,4.4,4.4C60.8,4.8,70,13.8,70,25s-9.1,20.2-20.3,20.2
	s-20.3-9.1-20.3-20.2c0-2.6-1.8-4.4-4.4-4.4c-2.4,0-4.4,2-4.4,4.4v24.2h-1.7V25C18.8,21.6,21.5,18.9,24.9,18.9L24.9,18.9z"/>
<linearGradient id="SVGID_2_" gradientUnits="userSpaceOnUse" x1="-3.666" y1="39.6929" x2="72.8352" y2="2.6507">
	<stop  offset="0" style="stop-color:#2E16BF"/>
	<stop  offset="0.5" style="stop-color:#BD33ED;stop-opacity:0.98"/>
	<stop  offset="0.9" style="stop-color:#F94A2D;stop-opacity:0.98"/>
</linearGradient>
<path fill="url(#SVGID_2_)" d="M24.9,0.2c3.2,0,6.3,0.6,9.1,1.7C34,1.4,34,0.9,34,0.5V0h1.7v0.5c0,0.7,0.1,1.4,0.2,2.2
	c1.5,0.7,2.9,1.5,4.2,2.5c-0.7-1.4-1.1-3-1.1-4.7V0h1.7v0.4c0,4.9,4.1,9,9,9c8.7,0,15.7,7,15.7,15.6c0,8.6-7,15.6-15.7,15.6
	c-8.7,0-15.7-7-15.7-15.6c0-5.1-3.9-8.9-9-8.9c-5,0-9,4-9,9v24.2h-1.7V25c0-5.9,4.8-10.7,10.8-10.7c6.1,0,10.8,4.6,10.8,10.6
	c0,7.7,6.3,13.9,14,13.9c7.7,0,14-6.2,14-13.9c0-7.7-6.3-13.9-14-13.9c-1.7,0-3.3-0.4-4.8-1.1c1,1.3,1.8,2.7,2.5,4.1
	c0.7,0.1,1.5,0.2,2.2,0.2c5.9,0,10.8,4.8,10.8,10.7c0,5.9-4.8,10.7-10.8,10.7c-5.9,0-10.8-4.8-10.8-10.7c0-7.8-6.1-13.8-14-13.8
	c-7.7,0-14,6.2-14,13.9v24.2H9.2V25c0-8.6,7-15.6,15.7-15.6c8.7,0,15.7,6.8,15.7,15.5c0,5,4.1,9,9,9s9-4,9-9c0-4.9-4.1-9-9-9
	c-0.5,0-1,0-1.5-0.1c0.4,0.9,0.7,1.9,0.9,2.9c0.2,0,0.4,0,0.5,0c3.4,0,6.1,2.7,6.1,6.1c0,3.4-2.8,6.1-6.1,6.1s-6.1-2.7-6.1-6.1
	c0-10.3-8.2-18.4-18.6-18.4C14.7,6.5,6.3,14.8,6.3,25v24.2H4.6V25c0-11.1,9.1-20.2,20.3-20.2c11.4,0,20.3,8.8,20.3,20.1
	c0,2.4,2,4.4,4.4,4.4c2.4,0,4.4-2,4.4-4.4s-2-4.4-4.4-4.4c-0.1,0-0.1,0-0.2,0c0.2,0.9,0.3,1.9,0.3,2.9c0.7,0.1,1.3,0.7,1.3,1.5
	c0,0.8-0.7,1.5-1.5,1.5c-0.8,0-1.5-0.7-1.5-1.5c0-12.9-10.2-23-23.2-23C12.1,1.9,1.7,12.3,1.7,25v24.2H0V25
	C0,11.3,11.2,0.2,24.9,0.2z"/>
<linearGradient id="SVGID_3_" gradientUnits="userSpaceOnUse" x1="-0.9245" y1="40.3697" x2="67.2336" y2="20.0723">
	<stop  offset="0" style="stop-color:#2E16BF"/>
	<stop  offset="0.5" style="stop-color:#BD33ED;stop-opacity:0.98"/>
	<stop  offset="0.9" style="stop-color:#F94A2D;stop-opacity:0.98"/>
</linearGradient>
<path fill="url(#SVGID_3_)" d="M24.9,23.4c0.9,0,1.5,0.6,1.5,1.5C26.4,37.7,36.9,48,49.6,48s23.2-10.3,23.2-23
	c0-12.7-9.9-22.5-22.2-23c-0.3,0-0.6,0-1,0c-0.9,0-1.5-0.7-1.5-1.5c0,0,0-0.2,0.2-0.2c0.2,0,0.5,0,1.2,0l0.9,0
	C63.8,0.7,74.6,11.6,74.6,25c0,13.6-11.2,24.7-24.9,24.7c-12.3,0-22.5-8.9-24.5-20.5v20h-1.7V24.9C23.4,24.1,24.1,23.4,24.9,23.4z"
	/>
</svg>
