<svg width="304" height="50" viewBox="0 0 304 50" fill="none" xmlns="http://www.w3.org/2000/svg">
<g clip-path="url(#clip0_503_968)">
<path d="M300.739 12.9369V23.7552H285.332V12.9369H282.841V37.4494H285.332V26.0721H300.739V37.4494H303.221V12.9369H300.739Z" fill="#00078A"/>
<path d="M261.695 15.2448H269.574V37.4494H272.065V15.2448H279.989V12.9369H261.695V15.2448Z" fill="#00078A"/>
<path d="M260.052 20.3384C260.052 15.7767 256.803 12.9369 251.568 12.9369H242.001V37.4584H244.492V27.5687H251.568C252.029 27.5687 252.471 27.5416 252.895 27.5055L258.103 37.3953L258.139 37.4584H261.072L255.35 26.9646C258.346 25.9099 260.061 23.5028 260.061 20.3384H260.052ZM257.561 20.3384C257.561 23.3675 255.26 25.2517 251.559 25.2517H244.483V15.2448H251.559C255.26 15.2448 257.561 17.1921 257.561 20.3384Z" fill="#00078A"/>
<path d="M225.24 38.0624C218.137 38.0624 212.352 32.2836 212.352 25.1886C212.352 18.0936 218.137 12.3148 225.24 12.3148C232.344 12.3148 238.129 18.0936 238.129 25.1886C238.129 32.2836 232.344 38.0624 225.24 38.0624ZM225.24 14.8842C219.554 14.8842 214.924 19.509 214.924 25.1886C214.924 30.8682 219.554 35.493 225.24 35.493C230.927 35.493 235.557 30.8682 235.557 25.1886C235.557 19.509 230.927 14.8842 225.24 14.8842Z" fill="#00078A"/>
<path d="M205.863 34.3842C205.863 35.1595 205.529 35.6553 205.005 35.6553C204.554 35.6553 204.058 35.1505 203.724 34.3391L199.59 25.1435L195.104 15.0825C194.31 13.3877 193.019 12.414 191.557 12.414C189.554 12.414 188.209 13.8564 188.209 16.0021V37.4584H190.7V16.0021C190.7 15.2268 191.034 14.7309 191.557 14.7309C192.009 14.7309 192.505 15.2358 192.839 16.0472L196.973 25.2427L201.458 35.2767C202.262 36.9986 203.552 37.9812 205.005 37.9812C207.009 37.9812 208.354 36.5388 208.354 34.3932V12.9369H205.863V34.3932V34.3842Z" fill="#00078A"/>
<path d="M173.29 34.3842C173.29 35.1595 172.956 35.6553 172.433 35.6553C171.981 35.6553 171.485 35.1505 171.151 34.3391L167.017 25.1435L162.532 15.0825C161.737 13.3877 160.447 12.414 158.984 12.414C156.981 12.414 155.636 13.8564 155.636 16.0021V37.4584H158.127V16.0021C158.127 15.2268 158.461 14.7309 158.984 14.7309C159.436 14.7309 159.932 15.2358 160.266 16.0472L164.4 25.2427L168.885 35.2767C169.689 36.9986 170.979 37.9812 172.433 37.9812C174.436 37.9812 175.781 36.5388 175.781 34.3932V12.9369H173.29V34.3932V34.3842Z" fill="#00078A"/>
<path d="M136.312 26.0721H150.166V23.7552H136.312V15.2448H150.897V12.9369H133.821V37.4494H151.249V35.1415H136.312V26.0721Z" fill="#00078A"/>
<path d="M121.808 12.9369H112.764V37.4584H115.255V28.957H121.808C126.88 28.957 130.292 25.7746 130.292 21.0326C130.292 16.2906 126.88 12.9369 121.808 12.9369ZM121.808 26.6401H115.255V15.2448H121.808C125.4 15.2448 127.81 17.5707 127.81 21.0326C127.81 24.4945 125.4 26.6401 121.808 26.6401Z" fill="#00078A"/>
<path d="M96.2569 38.0624C89.1538 38.0624 83.3684 32.2836 83.3684 25.1886C83.3684 18.0936 89.1538 12.3148 96.2569 12.3148C103.36 12.3148 109.145 18.0936 109.145 25.1886C109.145 32.2836 103.36 38.0624 96.2569 38.0624ZM96.2569 14.8842C90.5708 14.8842 85.9407 19.509 85.9407 25.1886C85.9407 30.8682 90.5708 35.493 96.2569 35.493C101.943 35.493 106.573 30.8682 106.573 25.1886C106.573 19.509 101.943 14.8842 96.2569 14.8842Z" fill="#00078A"/>
<mask id="mask0_503_968" style="mask-type:luminance" maskUnits="userSpaceOnUse" x="4" y="0" width="52" height="50">
<path d="M49.6579 18.9861C46.1019 18.9861 43.5206 21.5464 43.5206 25.0804C43.5206 35.3397 35.181 43.6878 24.928 43.6878C14.675 43.6878 6.32641 35.3577 6.32641 25.1164C6.32641 14.8751 14.666 6.54502 24.919 6.54502C28.3035 6.54502 31.0563 3.79537 31.0563 0.414651V0.00896454H29.3415V0.414651C29.3415 2.84877 27.3559 4.84114 24.91 4.84114C13.7093 4.84114 4.60254 13.9375 4.60254 25.1254C4.60254 36.3134 13.7093 45.4097 24.91 45.4097C36.1106 45.4097 45.2174 36.2953 45.2174 25.0894C45.2174 22.4659 46.9954 20.699 49.6399 20.699C52.0768 20.699 54.0714 22.6823 54.0714 25.1254V49.4756H55.7862V25.1254C55.7862 21.7447 53.0335 18.9951 49.6489 18.9951L49.6579 18.9861Z" fill="white"/>
</mask>
<g mask="url(#mask0_503_968)">
<path d="M74.8753 -2.32597H-0.45163V50.1067H74.8753V-2.32597Z" fill="url(#paint0_linear_503_968)"/>
</g>
<mask id="mask1_503_968" style="mask-type:luminance" maskUnits="userSpaceOnUse" x="9" y="0" width="66" height="50">
<path d="M49.6579 0.225381C46.4267 0.225381 43.3581 0.820387 40.5511 1.88419C40.5962 1.42441 40.6143 0.964631 40.6233 0.495839V0H38.9085V0.486823C38.9085 1.20804 38.8363 1.93828 38.7189 2.65048C37.2388 3.35367 35.8398 4.2011 34.5492 5.17475C35.2712 3.73231 35.6773 2.11858 35.6773 0.405686V0H33.9625V0.405686C33.9625 5.3821 29.91 9.43896 24.9189 9.43896C16.2635 9.43896 9.22356 16.4709 9.22356 25.1165C9.22356 33.7621 16.2635 40.794 24.9189 40.794C33.5744 40.794 40.6143 33.7441 40.6143 25.0804C40.6143 19.9507 44.5043 16.0832 49.6579 16.0832C54.8114 16.0832 58.7014 20.131 58.7014 25.1165V49.4666H60.4163V25.1165C60.4163 19.1935 55.5967 14.3793 49.6669 14.3793C43.7371 14.3793 38.9175 18.9771 38.9175 25.0804C38.9175 32.7975 32.6448 39.0811 24.937 39.0811C17.2292 39.0811 10.9565 32.8155 10.9565 25.1165C10.9565 17.4175 17.2292 11.1519 24.937 11.1519C26.6518 11.1519 28.2674 10.7462 29.7115 10.034C28.7367 11.3231 27.8883 12.7205 27.1843 14.199C26.4442 14.3162 25.6951 14.3793 24.937 14.3793C19.0072 14.3793 14.1876 19.1935 14.1876 25.1165C14.1876 31.0395 19.0072 35.8536 24.937 35.8536C30.8667 35.8536 35.6864 31.0215 35.6864 25.0804C35.6864 17.2732 41.8237 11.1519 49.6669 11.1519C57.5101 11.1519 63.6474 17.4175 63.6474 25.1165V49.4666H65.3623V25.1165C65.3623 16.4709 58.3224 9.43896 49.6669 9.43896C41.0114 9.43896 33.9715 16.3086 33.9715 25.0804C33.9715 30.0839 29.9191 34.1497 24.928 34.1497C19.9368 34.1497 15.8844 30.1019 15.8844 25.1165C15.8844 20.131 19.9368 16.0832 24.928 16.0832C25.4153 16.0832 25.9117 16.0562 26.3991 16.0111C26.0381 16.9667 25.7222 17.9494 25.4785 18.9591C25.298 18.9591 25.1085 18.9771 24.928 18.9771C21.5434 18.9771 18.7906 21.7267 18.7906 25.1075C18.7906 28.4882 21.5434 31.2378 24.928 31.2378C28.3125 31.2378 31.0653 28.4701 31.0653 25.0714C31.0653 14.6768 39.2334 6.53605 49.6579 6.53605C60.0823 6.53605 68.2504 14.8661 68.2504 25.1075V49.4576H69.9653V25.1075C69.9653 13.9195 60.8585 4.82316 49.6579 4.82316C38.4572 4.82316 29.3505 13.7212 29.3505 25.0714C29.3505 27.5326 27.3648 29.5339 24.9189 29.5339C22.473 29.5339 20.4874 27.5506 20.4874 25.1075C20.4874 22.6643 22.473 20.681 24.9189 20.681C24.9821 20.681 25.0453 20.681 25.1085 20.681C24.946 21.6366 24.8287 22.6102 24.7745 23.6019C24.0344 23.683 23.4478 24.3141 23.4478 25.0804C23.4478 25.9008 24.1157 26.5679 24.937 26.5679C25.7583 26.5679 26.4262 25.9008 26.4262 25.0804C26.4262 12.0985 36.625 1.93828 49.6308 1.93828C62.6366 1.93828 72.8354 12.3419 72.8354 25.1165V49.4666H74.5502V25.1165C74.5502 11.3953 63.3676 0.225381 49.6308 0.225381H49.6579Z" fill="white"/>
</mask>
<g mask="url(#mask1_503_968)">
<path d="M74.8754 -2.32589H-0.451591V50.1068H74.8754V-2.32589Z" fill="url(#paint1_linear_503_968)"/>
</g>
<mask id="mask2_503_968" style="mask-type:luminance" maskUnits="userSpaceOnUse" x="0" y="0" width="52" height="51">
<path d="M49.6584 23.5929C48.7649 23.5929 48.1331 24.242 48.1331 25.0804C48.1331 37.882 37.7176 48.2946 24.9285 48.2946C12.1393 48.2946 1.71485 37.9001 1.71485 25.1164C1.71485 12.3328 11.5888 2.48818 23.9266 1.96529C24.2064 1.95628 24.5584 1.92923 24.9195 1.9112C25.7949 1.87514 26.4267 1.23506 26.4267 0.405654C26.4267 0.405654 26.4448 0.216333 26.2011 0.225349C26.0296 0.225349 25.6956 0.225349 25.0097 0.225349L24.1342 0.252394C10.7584 0.676111 0 11.6567 0 25.1164C0 38.5762 11.1826 50.0075 24.9195 50.0075C37.1942 50.0075 47.4201 41.0824 49.4689 29.3806V49.4666H51.1837V25.0804C51.1837 24.242 50.4978 23.5929 49.6584 23.5929Z" fill="white"/>
</mask>
<g mask="url(#mask2_503_968)">
<path d="M74.8754 -2.3259H-0.451591V50.1068H74.8754V-2.3259Z" fill="url(#paint2_linear_503_968)"/>
</g>
</g>
<defs>
<linearGradient id="paint0_linear_503_968" x1="5.26152" y1="55.8133" x2="69.0984" y2="-8.10531" gradientUnits="userSpaceOnUse">
<stop stop-color="#2E16BF"/>
<stop offset="0.5" stop-color="#BD33ED" stop-opacity="0.98"/>
<stop offset="0.9" stop-color="#F94A2D" stop-opacity="0.98"/>
</linearGradient>
<linearGradient id="paint1_linear_503_968" x1="5.26156" y1="55.8134" x2="69.0985" y2="-8.10523" gradientUnits="userSpaceOnUse">
<stop stop-color="#2E16BF"/>
<stop offset="0.5" stop-color="#BD33ED" stop-opacity="0.98"/>
<stop offset="0.9" stop-color="#F94A2D" stop-opacity="0.98"/>
</linearGradient>
<linearGradient id="paint2_linear_503_968" x1="5.26156" y1="55.8134" x2="69.0985" y2="-8.10525" gradientUnits="userSpaceOnUse">
<stop stop-color="#2E16BF"/>
<stop offset="0.5" stop-color="#BD33ED" stop-opacity="0.98"/>
<stop offset="0.9" stop-color="#F94A2D" stop-opacity="0.98"/>
</linearGradient>
<clipPath id="clip0_503_968">
<rect width="303.673" height="50" fill="white"/>
</clipPath>
</defs>
</svg>
